<svg width="20" height="14" viewBox="0 0 20 14" fill="none" xmlns="http://www.w3.org/2000/svg">
<path d="M13.7703 7C13.7703 9.20914 11.9794 11 9.77027 11C7.56114 11 5.77027 9.20914 5.77027 7C5.77027 4.79086 7.56114 3 9.77027 3C11.9794 3 13.7703 4.79086 13.7703 7Z" stroke="#CDCDCD"/>
<path d="M17.9583 5.93429C18.3465 6.40556 18.5405 6.64119 18.5405 7C18.5405 7.35881 18.3465 7.59444 17.9583 8.06571C16.5382 9.78986 13.406 13 9.77027 13C6.13454 13 3.00233 9.78986 1.58224 8.06571C1.19408 7.59444 1 7.35881 1 7C1 6.64119 1.19408 6.40556 1.58224 5.93429C3.00233 4.21014 6.13454 1 9.77027 1C13.406 1 16.5382 4.21014 17.9583 5.93429Z" stroke="#CDCDCD"/>
</svg>
